<?xml version="1.0" encoding="iso-8859-1"?>
<!-- Generator: Adobe Illustrator 19.0.0, SVG Export Plug-In . SVG Version: 6.00 Build 0)  -->
<svg version="1.1" id="Capa_1" xmlns="http://www.w3.org/2000/svg" xmlns:xlink="http://www.w3.org/1999/xlink" x="0px" y="0px"
	 viewBox="0 0 512 512" style="enable-background:new 0 0 512 512;" xml:space="preserve">
<rect x="120.993" y="211.006" style="fill:#E6974A;" width="270.007" height="271.007"/>
<rect x="255.997" y="211.006" style="fill:#CE7937;" width="135.004" height="271.007"/>
<path style="fill:#FDDA41;" d="M451.006,256.007v211.006c0,7.2-5.099,13.2-12.001,14.7l-48,9.6l-15-54.301l-15,60.302l-42.002,14.4
	c-9.3,1.8-17.999-5.099-17.999-14.7V326.809l79.801-26.701c6-1.8,10.201-7.5,10.201-14.099v-60.002c0-4.501-2.1-9-5.7-11.7
	c-3.6-2.999-8.399-3.9-12.9-2.701L256,240.408l-116.403-28.802c-4.501-1.199-9.3-0.298-12.9,2.701c-3.6,2.701-5.7,7.2-5.7,11.7
	v60.002c0,6.599,4.2,12.299,10.201,14.099l79.801,26.701v170.205c0,9.6-8.699,16.5-17.999,14.7l-42.002-14.4l-15-60.302l-15,54.301
	l-48-9.6c-6.901-1.5-12.001-7.5-12.001-14.7V256.007c0-96.003,68.701-177.006,163.504-192.606H287.5
	C382.305,79.001,451.006,160.004,451.006,256.007z"/>
<path style="fill:#FBBE29;" d="M451.006,256.007v211.006c0,7.2-5.099,13.2-12.001,14.7l-48,9.6l-15-54.301l-15,60.302l-42.002,14.4
	c-9.3,1.8-17.999-5.099-17.999-14.7V326.809l79.801-26.701c6-1.8,10.201-7.5,10.201-14.099v-60.002c0-4.501-2.1-9-5.7-11.7
	c-3.6-2.999-8.399-3.9-12.9-2.701L256,240.408V63.401h31.501C382.305,79.001,451.006,160.004,451.006,256.007z"/>
<path style="fill:#FC3C65;" d="M300.1,101.202L270.1,9.3C268.002,3.301,262,0,256,0c-6,0-12.001,3.301-14.099,9.3L211.9,101.202
	c-1.201,3.001-1.201,6.601,0,9.6l30.001,90.002c1.8,6,7.5,10.201,14.099,10.201s12.299-4.2,14.099-10.201l30.001-90.002
	C301.301,107.803,301.301,104.203,300.1,101.202z"/>
<path style="fill:#FD9822;" d="M135.997,362.01c-8.291,0-15,6.709-15,15v114.299l30.001,6V377.01
	C150.997,368.719,144.288,362.01,135.997,362.01z"/>
<path style="fill:#FD8721;" d="M376.004,362.01c-8.291,0-15,6.709-15,15v120.3l30.001-6v-114.3
	C391.004,368.719,384.295,362.01,376.004,362.01z"/>
<path style="fill:#FC003A;" d="M300.1,110.802L270.1,200.805c-1.8,6-7.5,10.201-14.099,10.201V0c6,0,12.001,3.301,14.099,9.3
	l30.001,91.902C301.301,104.203,301.301,107.803,300.1,110.802z"/>
<g>
</g>
<g>
</g>
<g>
</g>
<g>
</g>
<g>
</g>
<g>
</g>
<g>
</g>
<g>
</g>
<g>
</g>
<g>
</g>
<g>
</g>
<g>
</g>
<g>
</g>
<g>
</g>
<g>
</g>
</svg>
