<?xml version="1.0" encoding="iso-8859-1"?>
<!-- Generator: Adobe Illustrator 19.0.0, SVG Export Plug-In . SVG Version: 6.00 Build 0)  -->
<svg version="1.1" id="Capa_1" xmlns="http://www.w3.org/2000/svg" xmlns:xlink="http://www.w3.org/1999/xlink" x="0px" y="0px"
	 viewBox="0 0 496 496" style="enable-background:new 0 0 496 496;" xml:space="preserve">
<g>
	<path style="fill:#FFCE54;" d="M128,360c22.08,0,40,17.92,40,40s-17.92,96-40,96s-40-73.92-40-96S105.92,360,128,360z"/>
	<path style="fill:#FFCE54;" d="M368,360c22.08,0,40,17.92,40,40s-17.92,96-40,96s-40-73.92-40-96S345.92,360,368,360z"/>
</g>
<g>
	<path style="fill:#F6BB42;" d="M368,360c-5.696,0-11.096,1.232-16,3.384c14.112,6.176,24,20.232,24,36.616
		c0,16.392-9.88,61.28-24,83.368C356.904,491.04,362.312,496,368,496c22.08,0,40-73.92,40-96S390.08,360,368,360z"/>
	<path style="fill:#F6BB42;" d="M128,360c-5.696,0-11.096,1.232-16,3.384c14.112,6.176,24,20.232,24,36.616
		c0,16.392-9.88,61.28-24,83.368C116.904,491.04,122.312,496,128,496c22.08,0,40-73.92,40-96S150.08,360,128,360z"/>
</g>
<polygon style="fill:#656D78;" points="416,304 416,336 392,336 368,336 344,336 320,336 320,304 "/>
<polygon style="fill:#434A54;" points="384,304 384,336 392,336 416,336 416,304 "/>
<path style="fill:#ED5565;" d="M416,128v176h-96v-32V128c0-26.48,21.52-48,48-48S416,101.52,416,128z"/>
<path style="fill:#DA4453;" d="M368,80c-5.616,0-10.984,1.016-16,2.8c18.616,6.608,32,24.344,32,45.2v176h32V128
	C416,101.52,394.48,80,368,80z"/>
<polygon style="fill:#AAB2BD;" points="296,272 264,272 232,272 200,272 176,272 176,304 200,304 232,304 264,304 296,304 320,304 
	320,272 "/>
<polygon style="fill:#656D78;" points="176,304 176,336 152,336 128,336 104,336 80,336 80,304 "/>
<path style="fill:#ED5565;" d="M176,272v32H80V128c0-26.48,21.52-48,48-48s48,21.52,48,48V272z"/>
<polygon style="fill:#434A54;" points="144,304 144,336 152,336 176,336 176,304 "/>
<path style="fill:#DA4453;" d="M128,80c-5.616,0-10.984,1.016-16,2.8c18.616,6.608,32,24.344,32,45.2v176h32V128
	C176,101.52,154.48,80,128,80z"/>
<rect x="160" style="fill:#434A54;" width="56" height="24"/>
<rect x="280" style="fill:#353B44;" width="56" height="24"/>
<path style="fill:#E6E9ED;" d="M248,64c22.08,0,40,17.92,40,40h-40h-40C208,81.92,225.92,64,248,64z"/>
<path style="fill:#656D78;" d="M368,56v24c-26.48,0-48,21.52-48,48v144h-24h-32h-32h-32h-24V128c0-26.48-21.52-48-48-48V56
	c0-17.68,14.32-32,32-32h56h64h56C353.68,24,368,38.32,368,56z M248,104h40c0-22.08-17.92-40-40-40s-40,17.92-40,40H248z"/>
<g>
	<path style="fill:#434A54;" d="M336,24h-32c17.68,0,32,14.32,32,32v36.32C344.504,84.688,355.696,80,368,80V56
		C368,38.32,353.68,24,336,24z"/>
	<path style="fill:#434A54;" d="M368,320c-4.424,0-8,3.576-8,8v8h8h8v-8C376,323.576,372.424,320,368,320z"/>
	<path style="fill:#434A54;" d="M344,320c-4.424,0-8,3.576-8,8v8h8h8v-8C352,323.576,348.424,320,344,320z"/>
	<path style="fill:#434A54;" d="M128,320c-4.424,0-8,3.576-8,8v8h8h8v-8C136,323.576,132.424,320,128,320z"/>
	<path style="fill:#434A54;" d="M104,320c-4.424,0-8,3.576-8,8v8h8h8v-8C112,323.576,108.424,320,104,320z"/>
	<path style="fill:#434A54;" d="M224,240c-4.424,0-8-3.576-8-8v-88c0-4.424,3.576-8,8-8s8,3.576,8,8v88
		C232,236.424,228.424,240,224,240z"/>
	<path style="fill:#434A54;" d="M272,240c-4.424,0-8-3.576-8-8v-88c0-4.424,3.576-8,8-8s8,3.576,8,8v88
		C280,236.424,276.424,240,272,240z"/>
</g>
<path style="fill:#ED5565;" d="M248,80c-4.424,0-8,3.576-8,8v16h8h8V88C256,83.576,252.424,80,248,80z"/>
<g>
	<polygon style="fill:#CCD1D9;" points="200,272 192,272 192,304 200,304 208,304 208,272 	"/>
	<polygon style="fill:#CCD1D9;" points="232,272 224,272 224,304 232,304 240,304 240,272 	"/>
	<polygon style="fill:#CCD1D9;" points="264,272 256,272 256,304 264,304 272,304 272,272 	"/>
	<polygon style="fill:#CCD1D9;" points="296,272 288,272 288,304 296,304 304,304 304,272 	"/>
</g>
<g>
</g>
<g>
</g>
<g>
</g>
<g>
</g>
<g>
</g>
<g>
</g>
<g>
</g>
<g>
</g>
<g>
</g>
<g>
</g>
<g>
</g>
<g>
</g>
<g>
</g>
<g>
</g>
<g>
</g>
</svg>
