<?xml version="1.0" encoding="iso-8859-1"?>
<!-- Generator: Adobe Illustrator 19.0.0, SVG Export Plug-In . SVG Version: 6.00 Build 0)  -->
<svg version="1.1" id="Capa_1" xmlns="http://www.w3.org/2000/svg" xmlns:xlink="http://www.w3.org/1999/xlink" x="0px" y="0px"
	 viewBox="0 0 512 512" style="enable-background:new 0 0 512 512;" xml:space="preserve">
<path style="fill:#4D4A5B;" d="M200.588,57.574C171.6,69.509,98.192,95.59,98.192,95.59s0.005,0.019,0.006,0.022
	c-0.017-0.02-0.035-0.041-0.035-0.041c-1.81,4.248-37.947,89.826-37.947,149.457c0,47.218-3.439,188.876-5.007,251.013
	C54.988,504.793,62.022,512,70.777,512h44.575c0.605-53.785,3.578-247.783,15.203-276.574l0.23-0.648
	c-0.07-0.364-0.132-0.737-0.199-1.105c5.813,30.264,10.207,59.476,10.689,80.409c1.539,66.932-17.958,108.477-24.882,180.025
	L115.352,512h284.303l-1.041-17.893c-6.924-71.548-26.421-113.092-24.882-180.025c0.481-20.91,4.866-50.079,10.669-80.306
	c-0.06,0.334-0.116,0.672-0.179,1.002l0.23,0.648C396.077,264.217,399.05,458.215,399.655,512h41.569
	c8.662,0,15.66-7.061,15.572-15.722c-0.626-62.014-2.005-203.971-2.005-251.25c0-59.631-36.138-145.208-37.948-149.457
	c0,0-0.019,0.022-0.035,0.042c0.001-0.003,0.006-0.023,0.006-0.023s-73.408-26.081-102.396-38.016"/>
<path style="fill:#444251;" d="M314.418,57.574C343.406,69.509,416.814,95.59,416.814,95.59s-41.544,151.559-43.083,218.492
	c-1.539,66.932,17.958,108.477,24.882,180.025L399.654,512h-54.122l-1.041-17.893c-6.924-71.548-26.421-113.092-24.882-180.025
	c1.164-50.629,25.218-149.679,36.867-194.928c3.44-13.362-3.848-27.142-16.826-31.826c-24.053-8.681-60.802-22.114-79.354-29.753
	l54.125,0.001"/>
<path style="fill:#FED9A8;" d="M256,103.452c28.834,0,53.327-18.522,62.273-44.312c-1.355-0.544-2.647-1.068-3.855-1.566
	c-8.6-3.541-14.793-29.398-14.793-29.398l-0.68-21.243C298.821,3.069,295.652,0,291.785,0H223.22c-3.867,0-7.035,3.069-7.159,6.934
	l-0.68,21.243c0,0-6.193,25.857-14.794,29.398c-1.973,0.812-4.157,1.692-6.504,2.622C203.324,85.438,227.558,103.452,256,103.452z"
	/>
<path style="fill:#F4CFA2;" d="M299.624,28.177l-0.68-21.243C298.821,3.069,295.652,0,291.785,0h-34.282v103.422
	c28.178-0.632,51.981-18.943,60.77-44.282c-1.355-0.544-2.647-1.068-3.855-1.566C305.817,54.033,299.624,28.177,299.624,28.177z"/>
<polygon style="fill:#FFFFFF;" points="257.503,61.354 207.702,96.015 257.503,365.04 307.304,96.015 "/>
<g>
	<path style="fill:#F2F2F2;" d="M215.324,28.413c-0.617,2.486-6.398,24.989-14.312,28.952c-0.139,0.079-0.279,0.15-0.423,0.21
		c-0.001,0-0.002,0.001-0.002,0.001l7.116,38.44l49.801-34.661C257.503,61.354,229.013,50.316,215.324,28.413z"/>
	<path style="fill:#F2F2F2;" d="M299.682,28.413c0.617,2.486,6.398,24.989,14.312,28.952c0.139,0.079,0.279,0.15,0.423,0.21
		c0.001,0,0.002,0.001,0.002,0.001l-7.116,38.44l-49.801-34.661C257.503,61.354,285.993,50.316,299.682,28.413z"/>
</g>
<polygon style="fill:#E25959;" points="257.503,61.354 232.653,78.65 242.454,99.384 257.503,99.384 272.552,99.384 282.353,78.65 
	"/>
<g>
	<path style="fill:#3A3847;" d="M265.247,512V332.256c0-4.277-3.467-7.744-7.744-7.744c-4.278,0-7.744,3.467-7.744,7.744V512
		H265.247z"/>
	<path style="fill:#3A3847;" d="M215.599,445.523h-50.213c-2.178,0-3.943-1.766-3.943-3.943v-21.617
		c0-2.178,1.766-3.943,3.943-3.943h50.213c2.178,0,3.943,1.766,3.943,3.943v21.617C219.543,443.757,217.777,445.523,215.599,445.523
		z"/>
	<path style="fill:#3A3847;" d="M346.372,445.523h-50.213c-2.178,0-3.943-1.766-3.943-3.943v-21.617
		c0-2.178,1.766-3.943,3.943-3.943h50.213c2.178,0,3.943,1.766,3.943,3.943v21.617C350.315,443.757,348.55,445.523,346.372,445.523z
		"/>
</g>
<g>
	<path style="fill:#666277;" d="M257.503,365.04L200.586,57.575c-7.215,2.971-17.071,6.817-27.834,10.92
		c-5.072,8.644-11.539,20.643-19.879,37.096l32.406,7.623l-16.25,20.073L257.503,365.04z"/>
	<path style="fill:#666277;" d="M257.503,365.04L314.42,57.575c7.215,2.971,17.071,6.817,27.834,10.92
		c5.072,8.644,11.539,20.643,19.879,37.096l-32.406,7.623l16.25,20.073L257.503,365.04z"/>
</g>
<polygon style="fill:#F33A3A;" points="257.501,365.028 257.503,365.04 286.023,210.977 272.386,99.385 257.503,99.385 
	242.62,99.385 228.983,210.978 "/>
<g>
	<path style="fill:#F15A24;" d="M300.11,30.061c0.026,0.096,0.052,0.193,0.08,0.295C300.163,30.255,300.136,30.156,300.11,30.061z"
		/>
	<path style="fill:#F15A24;" d="M299.82,28.958c0.019,0.072,0.037,0.144,0.058,0.226C299.858,29.103,299.838,29.029,299.82,28.958z"
		/>
	<path style="fill:#F15A24;" d="M300.304,30.771c0.027,0.097,0.055,0.198,0.083,0.3C300.358,30.97,300.33,30.868,300.304,30.771z"/>
	<path style="fill:#F15A24;" d="M299.948,29.451c0.023,0.088,0.047,0.177,0.072,0.274C299.995,29.63,299.971,29.538,299.948,29.451z
		"/>
	<path style="fill:#F15A24;" d="M299.732,28.61c0.011,0.044,0.021,0.084,0.034,0.135C299.753,28.695,299.743,28.654,299.732,28.61z"
		/>
	<path style="fill:#F15A24;" d="M301.062,33.416c0.006,0.021,0.013,0.044,0.02,0.065C301.075,33.46,301.069,33.437,301.062,33.416z"
		/>
	<path style="fill:#F15A24;" d="M300.527,31.572c0.026,0.093,0.054,0.189,0.081,0.285C300.581,31.762,300.553,31.664,300.527,31.572
		z"/>
	<path style="fill:#F15A24;" d="M214.203,32.536c0.003-0.01,0.006-0.02,0.009-0.029C214.208,32.516,214.205,32.526,214.203,32.536z"
		/>
	<path style="fill:#F15A24;" d="M200.586,57.575L200.586,57.575L200.586,57.575z"/>
	<path style="fill:#F15A24;" d="M214.436,31.723c0.008-0.028,0.016-0.056,0.024-0.083C214.452,31.667,214.444,31.696,214.436,31.723
		z"/>
	<path style="fill:#F15A24;" d="M214.651,30.957c0.01-0.034,0.019-0.069,0.028-0.102C214.67,30.888,214.66,30.923,214.651,30.957z"
		/>
	<path style="fill:#F15A24;" d="M215.015,29.612c0.001-0.003,0.001-0.006,0.002-0.009C215.017,29.606,215.016,29.609,215.015,29.612
		z"/>
	<path style="fill:#F15A24;" d="M214.849,30.234c0.005-0.017,0.009-0.034,0.014-0.051C214.858,30.2,214.853,30.217,214.849,30.234z"
		/>
</g>
<polygon style="fill:#C13A3A;" points="257.503,99.385 257.503,99.385 257.503,365.039 257.503,365.04 286.023,210.977 
	272.386,99.385 "/>
<g>
	<path style="fill:#666277;" d="M215.599,416.019h-50.213c-2.178,0-3.944,1.765-3.944,3.943v6.865c0,2.178,1.766,3.944,3.944,3.944
		h50.213c2.178,0,3.944-1.766,3.944-3.944v-6.865C219.543,417.785,217.777,416.019,215.599,416.019z"/>
	<path style="fill:#666277;" d="M346.372,416.019h-50.213c-2.178,0-3.944,1.765-3.944,3.943v6.865c0,2.178,1.766,3.944,3.944,3.944
		h50.213c2.178,0,3.944-1.766,3.944-3.944v-6.865C350.316,417.785,348.55,416.019,346.372,416.019z"/>
</g>
<g>
</g>
<g>
</g>
<g>
</g>
<g>
</g>
<g>
</g>
<g>
</g>
<g>
</g>
<g>
</g>
<g>
</g>
<g>
</g>
<g>
</g>
<g>
</g>
<g>
</g>
<g>
</g>
<g>
</g>
</svg>
