<?xml version="1.0" encoding="iso-8859-1"?>
<!-- Generator: Adobe Illustrator 19.0.0, SVG Export Plug-In . SVG Version: 6.00 Build 0)  -->
<svg version="1.1" id="Capa_1" xmlns="http://www.w3.org/2000/svg" xmlns:xlink="http://www.w3.org/1999/xlink" x="0px" y="0px"
	 viewBox="0 0 512 512" style="enable-background:new 0 0 512 512;" xml:space="preserve">
<path style="fill:#FFCE47;" d="M496.547,15.453h-30.905v30.905h30.905c8.534,0,15.453-6.919,15.453-15.453
	S505.081,15.453,496.547,15.453z"/>
<path style="fill:#FFE290;" d="M481.095,30.905c0-8.534-6.919-15.453-15.453-15.453H15.453C6.919,15.453,0,22.371,0,30.905
	s6.919,15.453,15.453,15.453h55.115L256,92.716l185.433-46.358h24.209C474.176,46.358,481.095,39.439,481.095,30.905z"/>
<polygon style="fill:#FF4181;" points="70.567,92.716 70.567,512 132.378,491.396 152.982,61.811 "/>
<polygon style="fill:#FF6E54;" points="132.378,61.811 132.378,491.396 194.189,470.793 214.793,61.811 "/>
<polygon style="fill:#FFCE47;" points="194.189,61.811 194.189,470.793 256,450.189 276.604,61.811 "/>
<polygon style="fill:#85C250;" points="256,61.811 256,450.189 317.811,470.793 338.414,61.811 "/>
<polygon style="fill:#7ACBFF;" points="317.811,61.811 317.811,470.793 379.622,491.396 400.225,61.811 "/>
<polygon style="fill:#804ABF;" points="441.433,92.716 389.924,72.113 410.527,501.698 441.433,512 "/>
<polygon style="fill:#AB62FF;" points="379.622,61.811 379.622,491.396 410.527,501.698 410.527,61.811 "/>
<polygon style="fill:#174461;" points="441.433,0 410.527,0 389.924,46.358 410.527,92.716 441.433,92.716 "/>
<polygon style="fill:#1F5D86;" points="379.622,0 379.622,46.358 317.811,46.358 317.811,0 204.491,0 204.491,46.358 142.68,46.358 
	142.68,0 70.567,0 70.567,92.716 410.527,92.716 410.527,0 "/>
<g>
</g>
<g>
</g>
<g>
</g>
<g>
</g>
<g>
</g>
<g>
</g>
<g>
</g>
<g>
</g>
<g>
</g>
<g>
</g>
<g>
</g>
<g>
</g>
<g>
</g>
<g>
</g>
<g>
</g>
</svg>
