<?xml version="1.0" encoding="iso-8859-1"?>
<!-- Generator: Adobe Illustrator 19.0.0, SVG Export Plug-In . SVG Version: 6.00 Build 0)  -->
<svg version="1.1" id="Capa_1" xmlns="http://www.w3.org/2000/svg" xmlns:xlink="http://www.w3.org/1999/xlink" x="0px" y="0px"
	 viewBox="0 0 512 512" style="enable-background:new 0 0 512 512;" xml:space="preserve">
<path style="fill:#BF0637;" d="M511.277,197.276c-1.476-4.54-5.054-8.089-9.608-9.523l-145.236-45.767L268.025,18
	c-2.772-3.886-7.251-6.194-12.025-6.194c-4.774,0-9.253,2.308-12.025,6.194l-88.409,123.986L10.331,187.754
	c-4.554,1.435-8.132,4.983-9.608,9.523c-1.475,4.539-0.665,9.513,2.175,13.35l90.597,122.395l-1.353,152.272
	c-0.042,4.773,2.225,9.273,6.088,12.079c3.863,2.807,8.844,3.573,13.37,2.057L256,451.088l144.401,48.341
	c1.531,0.513,3.113,0.764,4.688,0.764c3.08,0,6.126-0.964,8.682-2.821c3.862-2.806,6.13-7.306,6.088-12.079l-1.353-152.272
	l90.597-122.395C511.942,206.79,512.752,201.816,511.277,197.276z"/>
<path style="fill:#E30133;" d="M254.553,11.893c-4.22,0.416-8.089,2.617-10.577,6.108l-88.409,123.986L10.331,187.754
	c-4.554,1.435-8.132,4.983-9.608,9.523c-1.475,4.539-0.665,9.513,2.175,13.35l90.597,122.395l-1.353,152.272
	c-0.042,4.773,2.225,9.273,6.088,12.079c3.863,2.807,8.844,3.573,13.37,2.057l142.952-47.856V11.893z"/>
<path style="fill:#FF8800;" d="M256,329.845c-8.157,0-14.769-6.613-14.769-14.769v-78.769c0-8.157,6.613-14.769,14.769-14.769
	c8.157,0,14.769,6.613,14.769,14.769v78.769C270.769,323.233,264.157,329.845,256,329.845z"/>
<path style="fill:#FFA500;" d="M254.553,221.611c-7.477,0.729-13.322,7.028-13.322,14.696v78.769
	c0,7.668,5.845,13.968,13.321,14.696L254.553,221.611L254.553,221.611z"/>
<path style="fill:#FF8800;" d="M305.231,329.845c-8.157,0-14.769-6.613-14.769-14.769v-78.769c0-8.157,6.613-14.769,14.769-14.769
	h39.385c19.002,0,34.462,15.459,34.462,34.462s-15.459,34.462-34.462,34.462H320v24.615
	C320,323.233,313.387,329.845,305.231,329.845z M320,260.922h24.615c2.715,0,4.923-2.208,4.923-4.923s-2.209-4.923-4.923-4.923H320
	V260.922z"/>
<path style="fill:#FFA500;" d="M177.231,329.845c-6.156,0-11.668-3.819-13.829-9.583l-29.538-78.769
	c-2.864-7.638,1.005-16.15,8.643-19.015c7.639-2.863,16.151,1.005,19.015,8.643l15.71,41.892l15.71-41.892
	c2.864-7.638,11.376-11.506,19.015-8.643c7.637,2.864,11.507,11.377,8.643,19.015l-29.538,78.769
	C188.899,326.026,183.388,329.845,177.231,329.845z"/>
<g>
</g>
<g>
</g>
<g>
</g>
<g>
</g>
<g>
</g>
<g>
</g>
<g>
</g>
<g>
</g>
<g>
</g>
<g>
</g>
<g>
</g>
<g>
</g>
<g>
</g>
<g>
</g>
<g>
</g>
</svg>
