<?xml version="1.0" encoding="iso-8859-1"?>
<!-- Generator: Adobe Illustrator 19.0.0, SVG Export Plug-In . SVG Version: 6.00 Build 0)  -->
<svg version="1.1" id="Layer_1" xmlns="http://www.w3.org/2000/svg" xmlns:xlink="http://www.w3.org/1999/xlink" x="0px" y="0px"
	 viewBox="0 0 512.002 512.002" style="enable-background:new 0 0 512.002 512.002;" xml:space="preserve">
<g>
	<path style="fill:#4780D1;" d="M97.278,362.505h317.438c-12.58,18.712-28.383,35.085-46.61,48.307H143.888
		C125.661,397.59,109.858,381.217,97.278,362.505z"/>
	<path style="fill:#4780D1;" d="M414.728,149.511H97.266c12.58-18.712,28.383-35.085,46.61-48.307h224.241
		C386.344,114.426,402.148,130.799,414.728,149.511z"/>
</g>
<path style="fill:#F2F2F2;" d="M414.728,149.511c20.457,30.431,32.395,67.068,32.395,106.491c0,39.436-11.937,76.072-32.407,106.503
	H97.278c-20.469-30.431-32.407-67.068-32.407-106.503c0-39.424,11.937-76.06,32.395-106.491
	C97.266,149.511,414.728,149.511,414.728,149.511z"/>
<g>
	<path style="fill:#3570AA;" d="M143.888,410.812h224.217c-31.498,22.845-70.231,36.309-112.102,36.309
		C214.119,447.121,175.386,433.657,143.888,410.812z"/>
	<path style="fill:#3570AA;" d="M368.117,101.204H143.876c31.498-22.845,70.243-36.321,112.127-36.321
		C297.875,64.883,336.62,78.359,368.117,101.204z"/>
</g>
<g>
	<rect x="88.18" y="140.414" style="fill:#DD3636;" width="335.641" height="18.179"/>
	<rect x="88.192" y="353.421" style="fill:#DD3636;" width="335.616" height="18.179"/>
	<rect x="134.79" y="92.119" style="fill:#DD3636;" width="242.42" height="18.179"/>
	<rect x="134.803" y="401.728" style="fill:#DD3636;" width="242.396" height="18.179"/>
</g>
<g>
	<path style="fill:#4780D1;" d="M249.695,213.618c-6.012-5.972-13.983-9.257-22.453-9.257c-0.038,0-0.075,0-0.111,0
		c-8.513,0.029-16.504,3.37-22.502,9.411c-5.998,6.039-9.286,14.053-9.257,22.565l0.136,39.652
		c0.061,17.535,14.343,31.76,31.865,31.758c0.036,0,0.075,0,0.111,0c8.511-0.029,16.504-3.37,22.502-9.411
		c5.999-6.039,9.286-14.053,9.257-22.565l-0.136-39.65C259.076,227.608,255.735,219.617,249.695,213.618z M237.086,285.524
		c-2.577,2.595-6.009,4.03-9.666,4.042c-0.016,0-0.032,0-0.047,0c-7.526,0-13.662-6.11-13.687-13.641l-0.136-39.65
		c-0.012-3.656,1.4-7.098,3.976-9.693c2.577-2.595,6.009-4.03,9.665-4.042l0,0c0.016,0,0.032,0,0.048,0
		c3.638,0,7.062,1.411,9.644,3.976c2.595,2.577,4.03,6.009,4.042,9.665l0.136,39.652
		C241.074,279.488,239.662,282.931,237.086,285.524z"/>
	<path style="fill:#4780D1;" d="M180.687,204.871c-4.814-1.411-9.867,1.346-11.281,6.164l-16.405,55.929l-16.787-55.815
		c-1.446-4.808-6.515-7.532-11.322-6.086c-4.806,1.446-7.532,6.514-6.086,11.322l25.601,85.119c1.156,3.843,4.694,6.472,8.704,6.472
		c0.011,0,0.022,0,0.032,0c4.024-0.013,7.559-2.671,8.691-6.531l25.018-85.292C188.264,211.334,185.504,206.284,180.687,204.871z"/>
	<path style="fill:#4780D1;" d="M384.488,289.235c-0.011,0-0.022,0-0.032,0l-29.296,0.101l-0.084-24.58l13.69-0.047
		c5.02-0.017,9.075-4.101,9.058-9.121c-0.017-5.009-4.083-9.058-9.089-9.058c-0.01,0-0.022,0-0.032,0l-13.689,0.047l-0.084-24.269
		l29.297-0.101c5.02-0.017,9.075-4.101,9.058-9.121c-0.017-5.009-4.083-9.058-9.089-9.058c-0.01,0-0.022,0-0.032,0l-38.385,0.131
		c-2.411,0.008-4.719,0.974-6.417,2.684c-1.699,1.71-2.649,4.026-2.641,6.437l0.292,85.206c0.017,5.009,4.083,9.058,9.089,9.058
		c0.01,0,0.022,0,0.032,0l38.385-0.131c5.02-0.017,9.075-4.101,9.058-9.121C393.559,293.284,389.493,289.235,384.488,289.235z"/>
	<path style="fill:#4780D1;" d="M316.789,204.082c-0.01,0-0.022,0-0.031,0l-23.2,0.079l0,0l0,0l-23.199,0.079
		c-5.021,0.017-9.076,4.1-9.059,9.121c0.017,5.009,4.083,9.058,9.089,9.058c0.01,0,0.022,0,0.032,0l14.11-0.048l0.261,76.117
		c0.017,5.009,4.083,9.058,9.089,9.058c0.01,0,0.022,0,0.031,0c5.02-0.017,9.075-4.101,9.058-9.121l-0.261-76.116l14.11-0.048
		c5.02-0.017,9.075-4.1,9.058-9.121C325.861,208.131,321.795,204.082,316.789,204.082z"/>
</g>
<path style="fill:#F73C3C;" d="M511.109,187.655c5.541,20.754-16.515,45.841-16.515,68.346s22.056,47.592,16.515,68.346
	c-5.742,21.476-37.554,32.155-48.433,50.955c-11.033,19.072-4.499,51.926-19.972,67.4c-15.474,15.486-48.326,8.938-67.4,19.972
	c-18.8,10.879-29.479,42.691-50.955,48.433c-20.754,5.541-45.852-16.504-68.346-16.504c-22.505,0-47.604,22.044-68.358,16.504
	c-21.464-5.742-32.155-37.554-50.955-48.433c-19.061-11.033-51.914-4.487-67.4-19.972c-15.474-15.474-8.938-48.326-19.972-67.4
	c-10.868-18.8-42.679-29.479-48.421-50.955C-4.656,303.593,17.4,278.506,17.4,256.001s-22.056-47.592-16.503-68.346
	C6.64,166.178,38.451,155.5,49.319,136.7c11.033-19.072,4.499-51.926,19.972-67.4c15.486-15.474,48.339-8.938,67.4-19.972
	c18.8-10.879,29.491-42.691,50.955-48.433c20.754-5.541,45.852,16.515,68.358,16.515c22.494,0,47.592-22.056,68.346-16.515
	c21.476,5.742,32.155,37.554,50.955,48.433c19.072,11.033,51.926,4.487,67.4,19.972c15.474,15.474,8.938,48.326,19.972,67.4
	C473.555,155.5,505.367,166.18,511.109,187.655z M442.703,256.002c0-38.512-11.661-74.301-31.646-104.029
	c-12.289-18.279-27.726-34.274-45.533-47.19c-30.769-22.316-68.619-35.481-109.522-35.481c-40.916,0-78.765,13.165-109.534,35.481
	c-17.805,12.917-33.244,28.91-45.533,47.19C80.951,181.701,69.29,217.49,69.29,256.002c0,38.524,11.661,74.314,31.658,104.041
	c12.289,18.279,27.726,34.274,45.533,47.19c30.769,22.316,68.607,35.469,109.522,35.469c40.903,0,78.741-13.153,109.51-35.469
	c17.805-12.917,33.244-28.91,45.533-47.19C431.041,330.314,442.703,294.525,442.703,256.002z"/>
<g>
</g>
<g>
</g>
<g>
</g>
<g>
</g>
<g>
</g>
<g>
</g>
<g>
</g>
<g>
</g>
<g>
</g>
<g>
</g>
<g>
</g>
<g>
</g>
<g>
</g>
<g>
</g>
<g>
</g>
</svg>
